<svg width="183" height="183" viewBox="0 0 183 183" fill="none" xmlns="http://www.w3.org/2000/svg">
<path d="M87.8147 75.7231C75.1893 75.8839 34 77.4778 34 91.1917C34 105.934 81.5635 106.68 91.0992 106.68C100.634 106.68 148.197 105.934 148.197 91.1917C148.197 84.6542 139.615 81.6605 133.161 79.9779C126.121 78.1422 116.612 76.8112 106.113 76.1612C106.285 78.953 106.406 81.8224 106.48 84.7396C125.665 85.9919 135.812 89.2329 138.932 91.2028C134.707 93.937 118.417 98.1342 91.0992 98.1342C63.7323 98.1342 47.4337 93.9215 43.2423 91.1884C47.2211 88.573 62.131 84.5977 87.9232 84.2671C90.2797 84.2383 92.1656 82.3005 92.1346 79.9402C92.1047 77.5998 90.2011 75.722 87.8701 75.722C87.8512 75.722 87.8335 75.722 87.8147 75.7231Z" fill="url(#paint0_linear_1209_51032)"/>
<path d="M75.6346 91.1917C75.6346 100.741 76.3799 148.381 91.0993 148.381C97.6229 148.381 100.612 139.792 102.292 133.33C104.126 126.275 105.455 116.742 106.106 106.218C102.944 106.408 100.02 106.522 97.541 106.589C96.2907 125.81 93.0538 135.977 91.0871 139.103C88.3574 134.869 84.1659 118.553 84.1659 91.1917C84.1659 63.8016 88.3663 47.48 91.0949 43.2673C93.7149 47.3546 97.7979 62.9364 98.0216 89.0399C98.0415 91.3881 99.9473 93.277 102.287 93.277H102.325C104.68 93.2559 106.574 91.3259 106.554 88.9678C106.434 75.0087 105.183 61.9293 103.03 52.1407C100.308 39.7645 96.5167 34 91.0993 34C76.3799 34 75.6346 81.6406 75.6346 91.1917Z" fill="url(#paint1_linear_1209_51032)"/>
<defs>
<linearGradient id="paint0_linear_1209_51032" x1="34.0001" y1="91.1898" x2="148.197" y2="91.1898" gradientUnits="userSpaceOnUse">
<stop stop-color="#45C3F3"/>
<stop offset="0.5" stop-color="#1671C2"/>
<stop offset="0.959876" stop-color="#2056AE"/>
<stop offset="1" stop-color="#2056AE"/>
</linearGradient>
<linearGradient id="paint1_linear_1209_51032" x1="91.0941" y1="148.382" x2="91.0941" y2="34.0001" gradientUnits="userSpaceOnUse">
<stop stop-color="#2056AE"/>
<stop offset="0.25" stop-color="#2056AE"/>
<stop offset="0.280093" stop-color="#2056AE"/>
<stop offset="0.625" stop-color="#A32B9B"/>
<stop offset="1" stop-color="#ED1443"/>
</linearGradient>
</defs>
</svg>
